<?xml version="1.0" encoding="UTF-8" standalone="no"?>
<!-- Created with Inkscape (http://www.inkscape.org/) -->

<svg
   width="210mm"
   height="297mm"
   viewBox="0 0 210 297"
   version="1.1"
   id="svg9211"
   inkscape:version="1.1 (c68e22c387, 2021-05-23)"
   sodipodi:docname="Paperboy.svg"
   xmlns:inkscape="http://www.inkscape.org/namespaces/inkscape"
   xmlns:sodipodi="http://sodipodi.sourceforge.net/DTD/sodipodi-0.dtd"
   xmlns="http://www.w3.org/2000/svg"
   xmlns:svg="http://www.w3.org/2000/svg">
  <sodipodi:namedview
     id="namedview9213"
     pagecolor="#ffffff"
     bordercolor="#666666"
     borderopacity="1.0"
     inkscape:pageshadow="2"
     inkscape:pageopacity="0.0"
     inkscape:pagecheckerboard="0"
     inkscape:document-units="mm"
     showgrid="false"
     inkscape:zoom="0.67178375"
     inkscape:cx="279.10767"
     inkscape:cy="561.93678"
     inkscape:window-width="1920"
     inkscape:window-height="1001"
     inkscape:window-x="2391"
     inkscape:window-y="257"
     inkscape:window-maximized="1"
     inkscape:current-layer="layer1" />
  <defs
     id="defs9208" />
  <g
     inkscape:label="Ebene 1"
     inkscape:groupmode="layer"
     id="layer1">
    <g
       id="g9709"
       transform="matrix(7.1224665,0,0,7.1224665,-378.31425,-614.00807)">
      <path
         d="m 69.173294,92.275114 c 0,0 0.385939,-0.0067 1.185334,0.331964 0.799394,0.33902 1.132063,1.212497 1.260475,1.896886 0.128058,0.684036 0.283986,2.1717 0.582083,3.10127 0.298097,0.928864 0.446969,1.247422 0.446969,1.247422 0,0 0.799395,1.401934 1.198739,2.472264 0.40005,1.07033 1.451328,3.73063 1.451328,3.73063 l -1.363133,0.70802 -2.743553,-3.98498 -2.018242,-9.503476"
         style="fill:#d91913;fill-opacity:1;fill-rule:nonzero;stroke:none;stroke-width:0.0352778"
         id="path5406" />
      <path
         d="m 76.964039,107.36829 -5.145264,0.23043 -0.518584,-4.73957 5.145617,-0.23001 0.518231,4.73915"
         style="fill:#414e52;fill-opacity:1;fill-rule:nonzero;stroke:none;stroke-width:0.0352778"
         id="path5408" />
      <path
         d="m 76.647597,107.11655 -4.859161,0.20284 -0.460728,-4.20941 4.859514,-0.20285 0.460375,4.20942"
         style="fill:#d4dbdf;fill-opacity:1;fill-rule:nonzero;stroke:none;stroke-width:0.0352778"
         id="path5410" />
      <path
         d="m 73.982361,107.74724 c 0,0 -0.06668,-0.26635 0,-0.49745 0.06632,-0.2311 0.240947,-0.33609 0.240947,-0.33609 0,0 0.343606,-0.16799 0.539397,-0.30099 0.196497,-0.13296 0.5461,-0.25231 0.70732,-0.22433 0.160866,0.0281 0.609247,0.41342 0.672747,0.51855 0.06279,0.10473 0.160867,0.7458 0.160867,0.7458 0,0 0.05221,0.2836 -0.968023,0.45159 -1.020939,0.16824 -1.211791,-0.21568 -1.353255,-0.35708"
         style="fill:#f2a983;fill-opacity:1;fill-rule:nonzero;stroke:none;stroke-width:0.0352778"
         id="path5412" />
      <path
         d="m 76.602441,105.53635 -0.148519,-1.3589 -0.448028,0.0199 0.14852,1.35915 0.448027,-0.0201"
         style="fill:#dd8e21;fill-opacity:1;fill-rule:nonzero;stroke:none;stroke-width:0.0352778"
         id="path5414" />
      <path
         d="m 76.303639,107.65273 c 0,0 -0.04868,-0.31722 -0.09984,-0.54225 -0.03775,0.008 -0.07514,0.0151 -0.108655,0.0151 -0.195086,0 -0.149225,0.332 -0.642761,0.43893 -0.493536,0.1065 -0.805392,0.14524 -0.902406,0.14524 -0.05856,0 -0.3429,0.0124 -0.561622,0.0438 0.141464,0.14637 0.341136,0.5165 1.347258,0.35073 1.020234,-0.16799 0.968023,-0.45159 0.968023,-0.45159"
         style="fill:#d88f69;fill-opacity:1;fill-rule:nonzero;stroke:none;stroke-width:0.0352778"
         id="path5416" />
      <path
         d="m 69.214216,123.97146 c 0,0 -0.119591,0.61598 0,1.1406 0,0 0.256117,0.40142 0.8382,0.49279 0.581378,0.0914 1.163462,0.18588 1.688042,0.5224 0.617361,0.39659 1.165578,0.95814 1.985081,1.01536 0.8001,0.055 1.368777,-0.26254 1.243541,-0.74111 -0.125589,-0.47957 -0.452261,-0.9911 -1.317978,-1.40946 -0.948619,-0.45822 -1.398763,-0.84804 -1.661583,-1.15633 -0.262114,-0.3077 -2.775303,0.13575 -2.775303,0.13575"
         style="fill:#673a1a;fill-opacity:1;fill-rule:nonzero;stroke:none;stroke-width:0.0352778"
         id="path5418" />
      <path
         d="m 74.979311,126.60819 c -0.0635,0.3605 -0.575381,0.58166 -1.253772,0.53442 -0.819503,-0.0572 -1.36772,-0.61877 -1.985081,-1.01536 -0.52458,-0.33652 -1.106664,-0.43103 -1.688042,-0.5224 -0.582083,-0.0914 -0.8382,-0.49279 -0.8382,-0.49279 l -0.01799,-0.0904 c -0.01799,0.15713 -0.0187,0.32494 0.01799,0.48482 0,0 0.256117,0.4021 0.8382,0.49319 0.238831,0.0374 0.478014,0.0758 0.713317,0.13077 l 0.149578,-0.19967 c 0.284692,0.0769 0.561975,0.18492 0.825147,0.35359 0.617361,0.39687 1.165578,0.95842 1.985081,1.01522 0.77223,0.0536 1.328208,-0.24063 1.253772,-0.69137"
         style="fill:#000508;fill-opacity:1;fill-rule:nonzero;stroke:none;stroke-width:0.0352778"
         id="path5420" />
      <path
         d="m 72.218119,107.02366 c 0.0374,0 0.339725,2.72422 0.213784,4.59987 -0.125589,1.87649 -0.125589,2.50585 -0.327378,3.63901 -0.201084,1.13344 0.301625,9.14149 0.301625,9.14149 0,0 -1.49472,1.03999 -3.461809,-0.0237 -0.02787,-2.53436 0.07373,-3.20781 -0.113594,-4.57236 -0.182739,-1.33103 -0.264583,-3.3245 0,-4.77199 0.264583,-1.44818 -1.070328,-7.50467 -1.070328,-7.50467 l 3.641372,-3.15447 0.816328,2.64682"
         style="fill:#0b6a98;fill-opacity:1;fill-rule:nonzero;stroke:none;stroke-width:0.0352778"
         id="path5422" />
      <path
         d="m 71.883333,105.93859 -0.113594,-0.36795 c -0.330906,-0.0893 -0.875595,-0.18133 -1.443214,-0.2625 l -2.566106,2.22317 c 0,0 1.334911,6.05649 1.070328,7.50467 -0.264583,1.44749 -0.182739,3.44096 0,4.77199 0.187325,1.36455 0.08572,2.038 0.113594,4.57236 0.448734,0.24281 0.87242,0.37535 1.260123,0.43571 -0.03704,-0.2716 -0.06985,-0.54116 -0.09278,-0.7892 -0.113242,-1.20124 0.528461,-0.41631 0,-1.50177 -0.528814,-1.08508 -0.15875,-2.23834 -0.193675,-3.67136 -0.03528,-1.43221 -0.278694,-1.94056 0.270581,-2.6796 0.548922,-0.73878 -0.01058,-1.20096 -0.07691,-1.29331 -0.06703,-0.0925 0.228247,-1.15465 0,-2.24014 -0.228953,-1.08561 -0.852311,-2.37875 -0.852311,-2.51781 0,-0.13861 0.181681,-1.26436 0.494947,-1.78689 0.272697,-0.45435 1.578328,-1.85554 2.129014,-2.39737"
         style="fill:#005d8b;fill-opacity:1;fill-rule:nonzero;stroke:none;stroke-width:0.0352778"
         id="path5424" />
      <path
         d="m 62.752739,119.07031 c 0,0 0.193675,0.87877 0.38735,1.24355 0.194028,0.36477 0.844197,1.52865 0.239536,1.68811 -0.604661,0.1597 -1.688394,0.0687 -2.384072,-0.75255 -0.696031,-0.82158 -0.376061,-1.75687 -0.547864,-2.225 -0.170745,-0.46743 -0.866775,-1.72184 -0.59302,-2.21255 l 0.798689,-0.56942 2.099381,2.82786"
         style="fill:#673a1a;fill-opacity:1;fill-rule:nonzero;stroke:none;stroke-width:0.0352778"
         id="path5426" />
      <path
         d="m 63.379625,122.00197 c -0.604661,0.1597 -1.688394,0.0687 -2.384072,-0.75255 -0.696031,-0.82158 -0.376061,-1.75687 -0.547864,-2.225 -0.167217,-0.4571 -0.837142,-1.66892 -0.608189,-2.18003 l -0.305858,0.18683 c -0.214842,0.38393 0.165805,1.23695 0.42298,1.81339 l 0.236361,-0.10171 c 0.06491,0.14647 0.121356,0.2734 0.155928,0.36834 0.171097,0.46743 -0.148167,1.40271 0.547511,2.2243 0.695678,0.8213 1.779764,0.91267 2.384072,0.75282 0.08361,-0.0219 0.142523,-0.0638 0.182739,-0.11962 l -0.08361,0.0332"
         style="fill:#000508;fill-opacity:1;fill-rule:nonzero;stroke:none;stroke-width:0.0352778"
         id="path5428" />
      <path
         d="m 64.334594,107.23504 c 0,0 -0.796219,2.64929 -0.869597,3.50767 -0.07267,0.85754 -0.250825,1.04839 -1.12783,1.69648 -0.877006,0.64812 -1.194859,2.06336 -1.502481,2.63027 -0.287161,0.53206 -0.61348,0.97236 -0.61348,0.97236 -0.419806,2.17343 1.257652,3.56468 1.868311,3.56553 0.398991,0 0.554919,-0.62026 0.554919,-0.62026 0,0 0.548922,-2.19604 0.971903,-2.72947 0.422275,-0.5333 1.294694,-1.53074 2.009775,-2.27475 0.71508,-0.74288 3.239558,-5.75659 3.239558,-5.75659 0,0 1.105253,-0.76013 1.246011,-2.74066 0.140053,-1.98124 -4.9784,-0.7039 -4.9784,-0.7039 0,0 -0.527755,1.51377 -0.798689,2.45332"
         style="fill:#0b6a98;fill-opacity:1;fill-rule:nonzero;stroke:none;stroke-width:0.0352778"
         id="path5430" />
      <path
         d="m 65.890344,113.64181 c -0.03245,0.004 -0.06385,0.01 -0.09701,0.0134 -0.951794,0.10378 -1.072797,-0.50201 -2.248958,-0.29422 -1.093964,0.19293 -2.465211,2.95631 -3.381375,3.58182 0.107245,1.64882 1.405467,2.66372 1.92652,2.66457 0.398991,0 0.554919,-0.62026 0.554919,-0.62026 0,0 0.548922,-2.19604 0.971903,-2.72947 0.422275,-0.5333 1.294694,-1.53074 2.009775,-2.27475 0.07161,-0.074 0.160866,-0.19113 0.26423,-0.34106"
         style="fill:#005d8b;fill-opacity:1;fill-rule:nonzero;stroke:none;stroke-width:0.0352778"
         id="path5432" />
      <path
         d="m 69.001844,92.177395 1.051984,0.314325 c 0,0 1.50883,1.850319 1.50883,3.786717 0,1.936397 -0.204964,5.985583 -0.02152,6.644213 0.182386,0.65864 0.187677,2.12365 0.187677,2.12365 0,0 0.154517,0.18204 -1.775883,1.01921 -2.08033,0.90248 -5.103283,-0.79375 -5.103283,-0.79375 0,0 0.437092,-1.90425 0.343253,-3.13086 -0.09419,-1.22661 -1.331384,-7.936797 -1.331384,-7.936797 l 1.531761,-1.495425 3.608564,-0.531283"
         style="fill:#ff3f39;fill-opacity:1;fill-rule:nonzero;stroke:none;stroke-width:0.0352778"
         id="path5434" />
      <path
         d="m 67.611547,104.80405 c -0.77223,-0.23717 -0.948972,-2.61024 -0.485775,-3.05156 0.46355,-0.44133 -0.264583,-1.03752 -0.639939,-1.21391 -0.375003,-0.17674 -0.618066,-0.595841 -0.627591,-1.081616 -0.0088,-0.485775 0.472722,-0.9271 0.208138,-1.258358 -0.265288,-0.330906 -1.522941,-1.721908 -1.522941,-1.721908 l -0.292453,-0.125236 c 0.370769,2.076449 0.883003,5.017908 0.941917,5.789438 0.09384,1.22661 -0.343253,3.13086 -0.343253,3.13086 0,0 1.589264,0.89077 3.256139,1.03724 0.0028,-0.24737 0.03351,-0.46221 0.123825,-0.61641 0.264583,-0.45226 0.154164,-0.65112 -0.618067,-0.88854"
         style="fill:#e5251f;fill-opacity:1;fill-rule:nonzero;stroke:none;stroke-width:0.0352778"
         id="path5436" />
      <path
         d="m 67.143058,111.07358 -5.239455,-3.02468 0.978605,-5.72279 5.239103,3.02503 -0.978253,5.72244"
         style="fill:#411400;fill-opacity:1;fill-rule:nonzero;stroke:none;stroke-width:0.0352778"
         id="path5438" />
      <path
         d="m 64.486642,102.74944 -0.97155,0.19791 -1.02235,-0.5902 0.97155,-0.19756 1.02235,0.58985"
         style="fill:#d4dbdf;fill-opacity:1;fill-rule:nonzero;stroke:none;stroke-width:0.0352778"
         id="path5440" />
      <path
         d="m 64.034028,104.7179 -0.97155,0.19791 0.452614,-1.96846 0.97155,-0.19791 -0.452614,1.96846"
         style="fill:#bbc2c6;fill-opacity:1;fill-rule:nonzero;stroke:none;stroke-width:0.0352778"
         id="path5442" />
      <path
         d="m 63.515092,102.94735 -0.452614,1.96846 -1.021645,-0.58981 0.451909,-1.96885 1.02235,0.5902"
         style="fill:#a2a9ad;fill-opacity:1;fill-rule:nonzero;stroke:none;stroke-width:0.0352778"
         id="path5444" />
      <path
         d="m 65.716072,103.70194 -1.195211,0.24342 -1.2573,-0.72567 1.194858,-0.24377 1.257653,0.72602"
         style="fill:#d4dbdf;fill-opacity:1;fill-rule:nonzero;stroke:none;stroke-width:0.0352778"
         id="path5446" />
      <path
         d="m 65.159742,106.12408 -1.195212,0.24377 0.556331,-2.42249 1.195211,-0.24342 -0.55633,2.42214"
         style="fill:#bbc2c6;fill-opacity:1;fill-rule:nonzero;stroke:none;stroke-width:0.0352778"
         id="path5448" />
      <path
         d="m 64.520861,103.94536 -0.556331,2.42249 -1.256947,-0.72637 0.555978,-2.42179 1.2573,0.72567"
         style="fill:#a2a9ad;fill-opacity:1;fill-rule:nonzero;stroke:none;stroke-width:0.0352778"
         id="path5450" />
      <path
         d="m 67.900472,103.53754 -1.391355,0.28364 -1.463675,-0.84526 1.391355,-0.28328 1.463675,0.8449"
         style="fill:#d4dbdf;fill-opacity:1;fill-rule:nonzero;stroke:none;stroke-width:0.0352778"
         id="path5452" />
      <path
         d="m 67.252772,106.35723 -1.391355,0.28331 0.6477,-2.81936 1.391355,-0.28364 -0.6477,2.81969"
         style="fill:#bbc2c6;fill-opacity:1;fill-rule:nonzero;stroke:none;stroke-width:0.0352778"
         id="path5454" />
      <path
         d="m 66.509117,103.82118 -0.6477,2.81936 -1.463675,-0.84486 0.6477,-2.81976 1.463675,0.84526"
         style="fill:#a2a9ad;fill-opacity:1;fill-rule:nonzero;stroke:none;stroke-width:0.0352778"
         id="path5456" />
      <path
         d="m 65.608475,112.13012 -5.461,-3.30549 1.222375,-5.99017 5.239455,3.02503 -1.00083,6.27063"
         style="fill:#673a1a;fill-opacity:1;fill-rule:nonzero;stroke:none;stroke-width:0.0352778"
         id="path5458" />
      <path
         d="m 60.687578,106.46458 c 0,0 -0.05962,0.67662 -0.122061,0.89958 -0.06244,0.22324 -0.131234,0.9295 -0.04762,1.39485 0.08361,0.46538 0.334433,0.82409 0.334433,0.82409 0,0 0.254706,0.28649 0.379589,0.42718 0.124883,0.14015 0.771525,0.27837 0.771525,0.27837 0,0 0.520347,0.29104 0.60325,0.10238 0.08361,-0.18948 -0.117475,-0.25686 -0.261761,-0.35387 -0.143934,-0.0974 -0.537634,-0.66397 -0.570442,-0.76592 -0.03316,-0.10156 0.142522,-0.72362 0.266347,-0.7553 0.124178,-0.0314 0.375709,0.0222 0.500945,0.25686 0.12453,0.23495 0.526697,0.84625 0.703086,0.67938 0.176036,-0.1669 -0.09313,-0.58776 -0.210256,-0.86116 -0.116769,-0.27298 -0.397933,-0.86636 -0.606777,-1.08367 -0.209198,-0.21759 -0.602898,-0.59587 -0.602898,-0.59587 l 0.0254,-0.43106 -1.162755,-0.0158"
         style="fill:#f2a983;fill-opacity:1;fill-rule:nonzero;stroke:none;stroke-width:0.0352778"
         id="path5460" />
      <path
         d="m 60.614906,108.99784 -0.04339,-0.017 c 0.106892,0.35278 0.280811,0.60223 0.280811,0.60223 0,0 0.254706,0.28649 0.379589,0.42718 0.0769,0.0864 0.351014,0.17183 0.551392,0.22475 -0.277284,-0.3211 -0.655814,-1.03752 -0.66922,-1.05241 -0.01517,-0.0179 -0.193322,-0.10583 -0.49918,-0.18478"
         style="fill:#d88f69;fill-opacity:1;fill-rule:nonzero;stroke:none;stroke-width:0.0352778"
         id="path5462" />
      <path
         d="m 63.803311,94.204103 c 0,0 -1.019881,0.603956 -1.529292,2.411236 -0.509763,1.807281 -1.420988,3.968401 -1.590322,5.317421 -0.169333,1.34937 -0.261761,5.31883 -0.261761,5.31883 0,0 1.296811,-0.071 1.795992,-0.17889 0,0 0.465314,-2.82607 0.662516,-3.89005 0.197203,-1.06362 0.551745,-1.62631 0.727781,-2.07927 0.176036,-0.45297 1.605844,-3.481566 1.704975,-4.401963 0.09948,-0.920044 0.343605,-2.519186 -1.509889,-2.497314"
         style="fill:#ff3f39;fill-opacity:1;fill-rule:nonzero;stroke:none;stroke-width:0.0352778"
         id="path5464" />
      <path
         d="m 66.609305,105.85949 c 0,0 -1.222727,5.76199 -1.222727,5.9902 0,0.22818 0.333727,0.43918 0.738364,0.22818 0.404283,-0.21124 0.914047,-0.39603 1.018116,-1.00429 0.10407,-0.60744 0.978253,-5.72244 0.978253,-5.72244 0,0 -0.605719,0.67275 -1.512006,0.50835"
         style="fill:#4e2101;fill-opacity:1;fill-rule:nonzero;stroke:none;stroke-width:0.0352778"
         id="path5466" />
      <path
         d="m 69.207514,92.215495 c 1.407936,3.790244 -0.181328,8.331905 -1.372659,11.558765 -0.484716,1.31297 -0.867833,2.3502 -0.947208,3.08472 l 0.575381,0.0624 c 0.07197,-0.66351 0.462491,-1.72156 0.914752,-2.94675 1.125361,-3.048 2.810934,-7.616123 1.516592,-11.542892 l -0.686858,-0.216253"
         style="fill:#673a1a;fill-opacity:1;fill-rule:nonzero;stroke:none;stroke-width:0.0352778"
         id="path5468" />
      <path
         d="m 65.860711,91.064028 c 0,0 0.107597,0.822325 -0.107597,1.265767 -0.214136,0.443442 0.56515,0.905228 1.514475,1.309864 0.949677,0.404283 1.159227,0.191205 1.303866,0.01411 0.303742,-0.372533 0.237067,-1.464028 0.237067,-1.464028 l -2.947811,-1.125714"
         style="fill:#d88f69;fill-opacity:1;fill-rule:nonzero;stroke:none;stroke-width:0.0352778"
         id="path5470" />
      <path
         d="m 65.728772,92.659289 c -0.01129,-0.06597 -0.01517,-0.127352 -0.01129,-0.182739 -7.05e-4,0.05927 0.01411,0.118534 0.04339,0.1778 l -0.0321,0.0049"
         style="fill:#f9eee9;fill-opacity:1;fill-rule:nonzero;stroke:none;stroke-width:0.0352778"
         id="path5472" />
      <path
         d="m 66.34825,93.490787 -0.47237,-0.392642 c -0.07444,-0.157339 -0.124883,-0.30727 -0.147108,-0.438856 l 0.0321,-0.0049 c 0.0889,0.182034 0.309033,0.364067 0.605367,0.541162 -0.02117,0.162277 -0.01799,0.295275 -0.01799,0.295275 m 2.545644,-0.312562 c -0.04586,0 -0.09172,-0.0014 -0.137583,-0.0039 0.01235,-0.06597 0.02223,-0.133703 0.03034,-0.201436 0.02505,0.0011 0.05009,0.0014 0.07444,0.0014 0.0092,0 0.01834,0 0.02752,0 0.02399,-7.06e-4 0.04727,-0.0018 0.0695,-0.0035 0.01235,0.06773 0.02505,0.136525 0.03739,0.205317 -0.03387,0.0014 -0.06773,0.0021 -0.1016,0.0021"
         style="fill:#f93b34;fill-opacity:1;fill-rule:nonzero;stroke:none;stroke-width:0.0352778"
         id="path5474" />
      <path
         d="m 66.366242,93.195512 c -0.296334,-0.177095 -0.516467,-0.359128 -0.605367,-0.541162 -0.02928,-0.05927 -0.0441,-0.118533 -0.04339,-0.1778 0.0039,-0.05539 0.01552,-0.104775 0.03563,-0.146755 0.107597,-0.221545 0.134408,-0.538339 0.134408,-0.799395 0,-0.08643 -0.0028,-0.166863 -0.0067,-0.235655 0.06491,0.06138 0.12312,0.107244 0.175684,0.140758 0.201083,0.277636 0.420864,0.51435 0.637116,0.687211 0.296686,0.236714 0.680156,0.451556 1.071739,0.606425 v 0 0 c 0.353836,0.140053 0.713317,0.230717 1.021292,0.24377 -0.0081,0.06773 -0.01799,0.135466 -0.03034,0.201436 -0.710495,-0.03951 -1.423811,-0.369006 -1.865842,-0.535517 -0.0515,-0.01976 -0.09842,-0.02858 -0.140758,-0.02858 -0.257881,0 -0.350661,0.329495 -0.383469,0.585259"
         style="fill:#d38660;fill-opacity:1;fill-rule:nonzero;stroke:none;stroke-width:0.0352778"
         id="path5476" />
      <path
         d="m 68.571455,93.65377 0.96767,0.957439 c 0,0 -0.100542,-1.712736 -0.182739,-2.477911 l -0.498475,-0.23495 c 0,0 -0.1397,1.38183 -0.286456,1.755422"
         style="fill:#d91913;fill-opacity:1;fill-rule:nonzero;stroke:none;stroke-width:0.0352778"
         id="path5478" />
      <path
         d="m 66.175389,87.476631 c 0.666044,-0.447675 1.719791,-0.398286 2.462036,0.103717 0.742597,0.502003 0.938741,1.108075 1.004711,1.381125 0.06491,0.27305 0.147461,0.507647 0.212725,0.715433 0.06562,0.207433 -0.149578,0.467078 -0.149578,0.467078 0.232481,0.292805 0.05151,0.98813 0.0028,1.156758 0.02716,0.06526 0.04304,0.120297 0.03986,0.158397 -0.01023,0.103364 -0.06491,0.150636 -0.131233,0.172861 -0.05151,0.225425 -0.09525,0.491067 -0.09525,0.60572 0,0.167569 0.02223,0.725311 -0.632883,0.7366 -0.655109,0.01094 -1.599142,-0.37712 -2.194984,-0.851606 -0.594783,-0.475191 -1.217436,-1.436158 -1.397705,-2.396772 -0.179917,-0.960966 0.213078,-1.801989 0.879475,-2.249311"
         style="fill:#f2a983;fill-opacity:1;fill-rule:nonzero;stroke:none;stroke-width:0.0352778"
         id="path5480" />
      <path
         d="m 69.854861,89.676906 c -0.06526,-0.207786 -0.147814,-0.442383 -0.212725,-0.715433 l -0.0056,-0.02258 c -0.503766,0.06421 -1.722966,0.278342 -2.957688,0.9398 l -0.05045,0.02681 c 0.13335,0.156986 0.79622,0.690386 1.50742,0.816328 0.542219,0.09525 0.704144,-0.288572 1.586441,-0.600075 0.04833,-0.06526 0.187325,-0.271992 0.132645,-0.444853"
         style="fill:#d88f69;fill-opacity:1;fill-rule:nonzero;stroke:none;stroke-width:0.0352778"
         id="path5482" />
      <path
         d="m 69.708105,91.301095 v 0 c -0.09137,-0.221192 -0.315383,-0.564092 -0.377472,-0.787753 -0.07973,-0.289278 0.498122,-0.579261 0.498122,-0.579261 -0.04833,0.118181 -0.123119,0.209903 -0.123119,0.209903 0.232128,0.292805 0.05115,0.98813 0.0025,1.157111"
         style="fill:#d88f69;fill-opacity:1;fill-rule:nonzero;stroke:none;stroke-width:0.0352778"
         id="path5484" />
      <path
         d="m 69.581811,88.755803 c -0.06879,-0.196497 -0.191911,-0.454377 -0.421922,-0.718255 0.230364,0.263878 0.353483,0.521758 0.421922,0.718255 v 0 m -0.421922,-0.718608 c -0.0035,-0.0039 -0.0067,-0.0074 -0.01023,-0.01129 0.0035,0.0039 0.0067,0.0078 0.01023,0.01129 m -0.0127,-0.01446 c -7.06e-4,-7.05e-4 -0.0014,-0.0014 -0.0021,-0.0021 7.06e-4,7.06e-4 0.0014,0.0014 0.0021,0.0021 m -0.0053,-0.0056 c -3.53e-4,-7.06e-4 -7.06e-4,-0.0011 -0.0011,-0.0014 3.52e-4,3.52e-4 7.05e-4,7.05e-4 0.0011,0.0014 m -0.483658,-0.422628 c 0,0 -3.53e-4,0 -3.53e-4,-3.53e-4 3.53e-4,3.53e-4 3.53e-4,3.53e-4 3.53e-4,3.53e-4 m -0.0063,-0.0042 c -7.06e-4,-7.06e-4 -0.0014,-0.0011 -0.0025,-0.0018 0.0011,7.05e-4 0.0018,0.0011 0.0025,0.0018 m -0.0071,-0.0049 c -0.0025,-0.0018 -0.0049,-0.0035 -0.0074,-0.0049 0.0025,0.0014 0.0049,0.0032 0.0074,0.0049"
         style="fill:#fdf2ed;fill-opacity:1;fill-rule:nonzero;stroke:none;stroke-width:0.0352778"
         id="path5486" />
      <path
         d="M 67.765358,92.729139 C 67.373775,92.57427 66.990305,92.359428 66.693619,92.122714 66.477367,91.949853 66.257586,91.713139 66.056503,91.435503 v 0 c 0.201083,0.277636 0.420864,0.51435 0.637116,0.687211 0.297039,0.236714 0.680509,0.451556 1.071739,0.606425 v 0"
         style="fill:#d17f59;fill-opacity:1;fill-rule:nonzero;stroke:none;stroke-width:0.0352778"
         id="path5488" />
      <path
         d="m 67.765358,92.729139 c -0.39123,-0.154869 -0.7747,-0.369711 -1.071739,-0.606425 -0.216252,-0.172861 -0.436033,-0.409575 -0.637116,-0.687211 0.09525,0.06033 0.171097,0.08008 0.230716,0.08008 0.0635,0 0.108303,-0.02258 0.138642,-0.04163 v 0 c 0,0 -0.265642,-0.902053 -0.358775,-1.042811 -0.03493,-0.05327 -0.08114,-0.09701 -0.135114,-0.123825 0.186972,0.05362 0.40252,0.302683 0.451908,0.360186 0.03104,0.03563 0.1397,0.131233 0.217312,0.131233 0.01305,0 0.0254,-0.0028 0.03634,-0.0092 0.122766,-0.06985 0.202494,-0.318558 0.275872,-0.512586 0.01094,-0.02893 0.01552,-0.06632 0.01693,-0.110772 0.06385,0.04692 0.135114,0.09631 0.213078,0.145344 -0.05891,0.351367 -0.274814,0.511528 -0.198261,0.947914 0.07267,0.413103 0.656872,1.031522 0.820208,1.469672 m -0.834672,-2.979561 c -0.389819,-0.03845 -1.100667,-0.146755 -1.677811,-0.443794 0.0025,0.136878 0.01658,0.277283 0.04304,0.420158 -0.02928,-0.157691 -0.04339,-0.312208 -0.04339,-0.462139 -3.53e-4,-0.764116 0.365831,-1.413227 0.922867,-1.787172 0.306211,-0.206022 0.694619,-0.306564 1.096786,-0.306564 0.472369,0 0.964141,0.138995 1.36525,0.410281 v 0 c 0.0025,0.0014 0.0049,0.0032 0.0074,0.0049 0.0018,0.0011 0.0032,0.0021 0.0046,0.0032 0.0011,7.05e-4 0.0018,0.0011 0.0025,0.0018 0.0021,0.0014 0.0042,0.0028 0.006,0.0039 0,3.53e-4 3.53e-4,3.53e-4 3.53e-4,3.53e-4 0.197555,0.135819 0.3556,0.2794 0.4826,0.421217 3.52e-4,3.52e-4 7.05e-4,7.05e-4 0.0011,0.0014 0.0011,0.0011 0.0021,0.0025 0.0032,0.0035 7.06e-4,7.06e-4 0.0014,0.0014 0.0021,0.0021 7.05e-4,0.0011 0.0018,0.0021 0.0025,0.0032 0.0035,0.0039 0.0067,0.0074 0.01023,0.01129 0,3.53e-4 0,3.53e-4 0,3.53e-4 0.230011,0.263878 0.35313,0.521758 0.421922,0.718255 -0.03316,0.0755 -0.07056,0.145345 -0.112536,0.206375 -0.290336,0.0441 -0.715081,0.125236 -1.207911,0.271639 -0.02646,-0.0021 -0.05292,-0.0042 -0.07867,-0.006 -0.139347,-0.01129 -0.267405,-0.02222 -0.379941,-0.02222 -0.09172,0 -0.173567,0.0074 -0.242711,0.02787 -0.125942,0.0374 -0.220487,0.175684 -0.286809,0.358423 -0.113241,0.04904 -0.227541,0.1016 -0.342547,0.157691"
         style="fill:#f0a179;fill-opacity:1;fill-rule:nonzero;stroke:none;stroke-width:0.0352778"
         id="path5490" />
      <path
         d="m 67.143411,90.311553 c -0.07796,-0.04904 -0.149225,-0.09843 -0.213078,-0.145344 0.0035,-0.108656 -0.01058,-0.257528 0.01023,-0.415572 -0.0032,-3.53e-4 -0.0063,-7.06e-4 -0.0099,-0.0011 0.115006,-0.05609 0.229306,-0.108655 0.342547,-0.157691 -0.06562,0.180269 -0.103716,0.403577 -0.117828,0.61595 -0.0025,0.03634 -0.0063,0.07091 -0.01199,0.103716 m 1.486958,-1.061861 c -0.128411,0 -0.252236,-0.0074 -0.369005,-0.01587 0.49283,-0.146403 0.917575,-0.227541 1.207911,-0.271639 -0.08431,0.122061 -0.187678,0.208845 -0.315736,0.236714 -0.178859,0.03845 -0.354895,0.0508 -0.52317,0.0508"
         style="fill:#d68861;fill-opacity:1;fill-rule:nonzero;stroke:none;stroke-width:0.0352778"
         id="path5492" />
      <path
         d="m 65.522044,90.476653 c -0.04269,-0.103716 -0.08114,-0.209197 -0.115005,-0.315383 0.03387,0.106186 0.07267,0.211314 0.115005,0.315031 0,0 0,0 0,3.52e-4"
         style="fill:#f0a179;fill-opacity:1;fill-rule:nonzero;stroke:none;stroke-width:0.0352778"
         id="path5494" />
      <path
         d="m 66.9134,90.276981 c -0.07338,0.194028 -0.153106,0.442736 -0.275872,0.512586 -0.07514,0.04304 -0.217311,-0.08008 -0.253648,-0.122061 -0.08855,-0.102305 -0.706966,-0.818444 -0.746477,0.06597 -0.155575,-0.321028 -0.277284,-0.664281 -0.341489,-1.007534 -0.02646,-0.142875 -0.04057,-0.28328 -0.04304,-0.420158 0.582083,0.299508 1.299633,0.407105 1.687689,0.444853 -0.02893,0.22225 0.01058,0.426155 -0.02716,0.526344"
         style="fill:#634024;fill-opacity:1;fill-rule:nonzero;stroke:none;stroke-width:0.0352778"
         id="path5496" />
      <path
         d="m 69.246672,92.888242 c -0.05644,-0.811742 0.09419,-1.222022 0.09419,-1.222022 0.0092,-0.03563 0.159808,0.0039 0.275872,-0.03422 -0.05151,0.225425 -0.09525,0.49142 -0.09525,0.60572 0,0.128411 0.01235,0.485069 -0.274814,0.650522"
         style="fill:#d88f69;fill-opacity:1;fill-rule:nonzero;stroke:none;stroke-width:0.0352778"
         id="path5498" />
      <path
         d="m 66.425861,91.473956 c -0.08043,0.05115 -0.265642,0.124531 -0.627239,-0.262114 -0.361597,-0.38735 -0.355247,-0.751769 -0.176036,-0.873478 0.179211,-0.121708 0.351719,-0.04833 0.4445,0.09278 0.09313,0.140758 0.358775,1.042811 0.358775,1.042811"
         style="fill:#f2a983;fill-opacity:1;fill-rule:nonzero;stroke:none;stroke-width:0.0352778"
         id="path5500" />
      <path
         d="m 66.287219,91.515584 c -0.10548,0 -0.262819,-0.06209 -0.488597,-0.303742 -0.210608,-0.225425 -0.296333,-0.443089 -0.29598,-0.6096 3.52e-4,-0.119944 0.04516,-0.213078 0.119944,-0.263878 0.06315,-0.04269 0.125589,-0.06138 0.183797,-0.06138 0.107245,0 0.200731,0.06279 0.260703,0.154164 0.09313,0.140758 0.358775,1.042811 0.358775,1.042811 -0.03034,0.01905 -0.07514,0.04163 -0.138642,0.04163"
         style="fill:#f0a179;fill-opacity:1;fill-rule:nonzero;stroke:none;stroke-width:0.0352778"
         id="path5502" />
      <path
         d="m 65.465247,90.444198 c 0,0 0.728839,-0.503061 1.213556,-0.762353 1.611841,-0.864306 3.198988,-0.965906 3.198988,-0.965906 0,0 -0.5588,-1.243541 -0.95885,-1.71203 -0.370063,-0.433917 -1.474258,-0.648406 -2.511424,-0.04974 -1.330325,0.767997 -1.309864,1.515181 -1.308806,2.148417 7.06e-4,0.395111 0.122767,0.740128 0.366536,1.341614"
         style="fill:#ff3f39;fill-opacity:1;fill-rule:nonzero;stroke:none;stroke-width:0.0352778"
         id="path5504" />
      <path
         d="m 69.877791,88.715939 c 0,0 -1.587147,0.1016 -3.198988,0.965906 l -0.05045,0.02646 c 0.13335,0.156281 0.79622,0.690386 1.50742,0.815623 0.567972,0.100541 0.716491,-0.325262 1.711678,-0.642762 0.796572,-0.254 1.362075,-0.110066 1.362075,-0.110066 0,0 -0.296687,-0.347839 -0.657578,-0.619831 -0.366536,-0.27693 -0.674159,-0.435328 -0.674159,-0.435328"
         style="fill:#ff5953;fill-opacity:1;fill-rule:nonzero;stroke:none;stroke-width:0.0352778"
         id="path5506" />
      <path
         d="m 65.827197,91.898348 c 0,0 0.955675,1.381477 2.744258,1.755422 l -0.262114,1.51518 c 0,0 -2.533649,-1.768475 -2.997199,-2.434872 l 0.515055,-0.83573"
         style="fill:#d91913;fill-opacity:1;fill-rule:nonzero;stroke:none;stroke-width:0.0352778"
         id="path5508" />
    </g>
  </g>
</svg>
